<svg xmlns="http://www.w3.org/2000/svg" width="800" height="800" viewBox="0 0 800 800">
<defs>
<radialGradient id="bgg10" cx="50%" cy="38%" r="75%">
<stop offset="0%" stop-color="#1c1917"/><stop offset="55%" stop-color="#0c0a09"/><stop offset="100%" stop-color="#000"/>
</radialGradient>
<radialGradient id="halog10" cx="50%" cy="50%" r="50%">
<stop offset="0%" stop-color="#78716c" stop-opacity="0.38"/><stop offset="100%" stop-color="#78716c" stop-opacity="0"/>
</radialGradient>
<linearGradient id="lenteg10" x1="0" y1="0" x2="0" y2="1">
<stop offset="0%" stop-color="#78716c" stop-opacity="0.55"/><stop offset="100%" stop-color="#0c0a09" stop-opacity="0.97"/>
</linearGradient>
</defs>
<rect width="800" height="800" fill="url(#bgg10)"/>
<ellipse cx="400" cy="380" rx="300" ry="170" fill="url(#halog10)"/>
<g>
<g stroke="#000" stroke-width="16" stroke-linecap="round" fill="none">
<path d="M118 330 L60 352"/><path d="M682 330 L740 352"/>
<path d="M120 300 q-24 100 40 128 l90 6"/>
<path d="M680 300 q24 100 -40 128 l-90 6"/>
</g>
<g fill="url(#lenteg10)" stroke="#171310" stroke-width="26" stroke-linejoin="round">
<rect x="132" y="272" width="238" height="168" rx="76"/>
<rect x="430" y="272" width="238" height="168" rx="76"/>
</g>
<path d="M370 316 q30 -22 60 0" fill="none" stroke="#171310" stroke-width="22" stroke-linecap="round"/>
<path d="M160 300 q60 -18 120 -6" stroke="#fff" stroke-opacity="0.28" stroke-width="10" fill="none" stroke-linecap="round"/>
<path d="M458 300 q60 -18 120 -6" stroke="#fff" stroke-opacity="0.28" stroke-width="10" fill="none" stroke-linecap="round"/>
</g>
<text x="400" y="640" text-anchor="middle" font-family="Arial, sans-serif" font-size="34" font-weight="bold" fill="#f59e0b" letter-spacing="6">MIKYRA BLACKOUT</text>
<text x="400" y="684" text-anchor="middle" font-family="Arial, sans-serif" font-size="17" fill="#a8a29e" letter-spacing="3">BLOQUEO TOTAL ESPECTRO · DÍA 24H</text>
<text x="400" y="742" text-anchor="middle" font-family="Arial, sans-serif" font-size="13" fill="#57534e" letter-spacing="2">IMAGEN PROVISIONAL · SUSTITUIR POR FOTO REAL DE CJ</text>
</svg>